  0
SECTION
  2
HEADER
  9
$ACADVER
  1
AC1009
  9
$DWGCODEPAGE
  3
ansi_1251
  9
$INSBASE
 10
0.0
 20
0.0
 30
0.0
  9
$EXTMIN
 10
128.0
 20
-90.47899999710009
 30
0.0
  9
$EXTMAX
 10
375.0
 20
74.52100000289991
 30
65.16319998959996
  9
$LIMMIN
 10
0.0
 20
0.0
  9
$LIMMAX
 10
12.0
 20
9.0
  9
$ORTHOMODE
 70
     0
  9
$REGENMODE
 70
     1
  9
$FILLMODE
 70
     1
  9
$QTEXTMODE
 70
     0
  9
$MIRRTEXT
 70
     1
  9
$DRAGMODE
 70
     2
  9
$LTSCALE
 40
1.0
  9
$OSMODE
 70
    37
  9
$ATTMODE
 70
     1
  9
$TEXTSIZE
 40
0.2
  9
$TRACEWID
 40
0.05
  9
$TEXTSTYLE
  7
STANDARD
  9
$CLAYER
  8
2D_DRAWINGS
  9
$CELTYPE
  6
BYLAYER
  9
$CECOLOR
 62
   256
  9
$DIMSCALE
 40
1.0
  9
$DIMASZ
 40
0.18
  9
$DIMEXO
 40
0.0625
  9
$DIMDLI
 40
0.38
  9
$DIMRND
 40
0.0
  9
$DIMDLE
 40
0.0
  9
$DIMEXE
 40
0.18
  9
$DIMTP
 40
0.0
  9
$DIMTM
 40
0.0
  9
$DIMTXT
 40
0.18
  9
$DIMCEN
 40
0.09
  9
$DIMTSZ
 40
0.0
  9
$DIMTOL
 70
     0
  9
$DIMLIM
 70
     0
  9
$DIMTIH
 70
     1
  9
$DIMTOH
 70
     1
  9
$DIMSE1
 70
     0
  9
$DIMSE2
 70
     0
  9
$DIMTAD
 70
     0
  9
$DIMZIN
 70
     0
  9
$DIMBLK
  1

  9
$DIMASO
 70
     1
  9
$DIMSHO
 70
     1
  9
$DIMPOST
  1

  9
$DIMAPOST
  1

  9
$DIMALT
 70
     0
  9
$DIMALTD
 70
     2
  9
$DIMALTF
 40
25.4
  9
$DIMLFAC
 40
1.0
  9
$DIMTOFL
 70
     0
  9
$DIMTVP
 40
0.0
  9
$DIMTIX
 70
     0
  9
$DIMSOXD
 70
     0
  9
$DIMSAH
 70
     0
  9
$DIMBLK1
  1

  9
$DIMBLK2
  1

  9
$DIMSTYLE
  2
STANDARD
  9
$DIMCLRD
 70
     0
  9
$DIMCLRE
 70
     0
  9
$DIMCLRT
 70
     0
  9
$DIMTFAC
 40
1.0
  9
$DIMGAP
 40
0.09
  9
$LUNITS
 70
     2
  9
$LUPREC
 70
     3
  9
$SKETCHINC
 40
0.1
  9
$FILLETRAD
 40
0.5
  9
$AUNITS
 70
     0
  9
$AUPREC
 70
     0
  9
$MENU
  1
.
  9
$ELEVATION
 40
0.0
  9
$PELEVATION
 40
0.0
  9
$THICKNESS
 40
0.0
  9
$LIMCHECK
 70
     0
  9
$CHAMFERA
 40
0.0
  9
$CHAMFERB
 40
0.0
  9
$SKPOLY
 70
     0
  9
$TDCREATE
 40
2456915.956936979
  9
$TDUPDATE
 40
2456915.956966574
  9
$TDINDWG
 40
0.0000000116
  9
$TDUSRTIMER
 40
0.0000000116
  9
$USRTIMER
 70
     1
  9
$ANGBASE
 50
0.0
  9
$ANGDIR
 70
     0
  9
$PDMODE
 70
     0
  9
$PDSIZE
 40
0.0
  9
$PLINEWID
 40
0.0
  9
$COORDS
 70
     1
  9
$SPLFRAME
 70
     0
  9
$SPLINETYPE
 70
     6
  9
$SPLINESEGS
 70
     8
  9
$ATTDIA
 70
     0
  9
$ATTREQ
 70
     1
  9
$HANDLING
 70
     1
  9
$HANDSEED
  5
B8
  9
$SURFTAB1
 70
     6
  9
$SURFTAB2
 70
     6
  9
$SURFTYPE
 70
     6
  9
$SURFU
 70
     6
  9
$SURFV
 70
     6
  9
$UCSNAME
  2

  9
$UCSORG
 10
0.0
 20
0.0
 30
0.0
  9
$UCSXDIR
 10
1.0
 20
0.0
 30
0.0
  9
$UCSYDIR
 10
0.0
 20
1.0
 30
0.0
  9
$PUCSNAME
  2

  9
$PUCSORG
 10
0.0
 20
0.0
 30
0.0
  9
$PUCSXDIR
 10
1.0
 20
0.0
 30
0.0
  9
$PUCSYDIR
 10
0.0
 20
1.0
 30
0.0
  9
$USERI1
 70
     0
  9
$USERI2
 70
     0
  9
$USERI3
 70
     0
  9
$USERI4
 70
     0
  9
$USERI5
 70
     0
  9
$USERR1
 40
0.0
  9
$USERR2
 40
0.0
  9
$USERR3
 40
0.0
  9
$USERR4
 40
0.0
  9
$USERR5
 40
0.0
  9
$WORLDVIEW
 70
     1
  9
$SHADEDGE
 70
     3
  9
$SHADEDIF
 70
    70
  9
$TILEMODE
 70
     1
  9
$MAXACTVP
 70
    64
  9
$PLIMCHECK
 70
     0
  9
$PEXTMIN
 10
1.000000000000000E+20
 20
1.000000000000000E+20
 30
1.000000000000000E+20
  9
$PEXTMAX
 10
-1.000000000000000E+20
 20
-1.000000000000000E+20
 30
-1.000000000000000E+20
  9
$PLIMMIN
 10
0.0
 20
0.0
  9
$PLIMMAX
 10
12.0
 20
9.0
  9
$UNITMODE
 70
     0
  9
$VISRETAIN
 70
     1
  9
$PLINEGEN
 70
     0
  9
$PSLTSCALE
 70
     1
  0
ENDSEC
  0
SECTION
  2
TABLES
  0
TABLE
  2
VPORT
 70
     1
  0
VPORT
  2
*ACTIVE
 70
     0
 10
0.0
 20
0.0
 11
1.0
 21
1.0
 12
251.5
 22
-7.97899999710009
 13
0.0
 23
0.0
 14
0.5
 24
0.5
 15
0.5
 25
0.5
 16
0.0
 26
0.0
 36
1.0
 17
0.0
 27
0.0
 37
0.0
 40
168.3
 41
1.496969696969697
 42
50.0
 43
0.0
 44
0.0
 50
0.0
 51
0.0
 71
     0
 72
   100
 73
     1
 74
     3
 75
     0
 76
     0
 77
     0
 78
     0
  0
ENDTAB
  0
TABLE
  2
LTYPE
 70
     1
  0
LTYPE
  2
CONTINUOUS
 70
     0
  3
Solid line
 72
    65
 73
     0
 40
0.0
  0
ENDTAB
  0
TABLE
  2
LAYER
 70
     2
  0
LAYER
  2
0
 70
     0
 62
     7
  6
CONTINUOUS
  0
LAYER
  2
2D_DRAWINGS
 70
     0
 62
     5
  6
CONTINUOUS
  0
ENDTAB
  0
TABLE
  2
STYLE
 70
     1
  0
STYLE
  2
STANDARD
 70
     0
 40
0.0
 41
1.0
 50
0.0
 71
     0
 42
0.2
  3
txt
  4

  0
ENDTAB
  0
TABLE
  2
VIEW
 70
     0
  0
ENDTAB
  0
TABLE
  2
UCS
 70
     0
  0
ENDTAB
  0
TABLE
  2
APPID
 70
     1
  0
APPID
  2
ACAD
 70
     0
  0
ENDTAB
  0
TABLE
  2
DIMSTYLE
 70
     1
  0
DIMSTYLE
  2
STANDARD
 70
     0
  3

  4

  5

  6

  7

 40
1.0
 41
0.18
 42
0.0625
 43
0.38
 44
0.18
 45
0.0
 46
0.0
 47
0.0
 48
0.0
140
0.18
141
0.09
142
0.0
143
25.4
144
1.0
145
0.0
146
1.0
147
0.09
 71
     0
 72
     0
 73
     1
 74
     1
 75
     0
 76
     0
 77
     0
 78
     0
170
     0
171
     2
172
     0
173
     0
174
     0
175
     0
176
     0
177
     0
178
     0
  0
ENDTAB
  0
ENDSEC
  0
SECTION
  2
BLOCKS
  0
BLOCK
  8
0
  2
$MODEL_SPACE
 70
     0
 10
0.0
 20
0.0
 30
0.0
  3
$MODEL_SPACE
  1

  0
ENDBLK
  5
21
  8
0
  0
BLOCK
 67
     1
  8
0
  2
$PAPER_SPACE
 70
     0
 10
0.0
 20
0.0
 30
0.0
  3
$PAPER_SPACE
  1

  0
ENDBLK
  5
1D
 67
     1
  8
0
  0
ENDSEC
  0
SECTION
  2
ENTITIES
  0
LINE
  5
6B
  8
2D_DRAWINGS
 10
128.0
 20
-90.47899999710009
 30
65.16319998959996
 11
375.0
 21
-90.47899999710009
 31
65.16319998959996
  0
LINE
  5
6C
  8
2D_DRAWINGS
 10
375.0
 20
-90.47899999710009
 30
65.16319998959996
 11
375.0
 21
74.52100000289991
 31
65.16319998959996
  0
LINE
  5
6D
  8
2D_DRAWINGS
 10
375.0
 20
74.52100000289991
 30
65.16319998959996
 11
128.0
 21
74.52100000289991
 31
65.16319998959996
  0
LINE
  5
6E
  8
2D_DRAWINGS
 10
128.0
 20
74.52100000289991
 30
65.16319998959996
 11
128.0
 21
-90.47899999710009
 31
65.16319998959996
  0
ARC
  5
6F
  8
2D_DRAWINGS
 10
138.0
 20
-9.14999999420337
 30
0.0
 40
6.999999999999972
 50
89.99999999999977
 51
180.0000000000002
  0
LINE
  5
70
  8
2D_DRAWINGS
 10
131.0
 20
-9.149999994203398
 30
0.0
 11
131.0
 21
-78.99999999420312
 31
0.0
  0
ARC
  5
71
  8
2D_DRAWINGS
 10
137.9999999999999
 20
-78.99999999420315
 30
0.0
 40
6.999999999999943
 50
179.9999999999998
 51
270.0000000000005
  0
LINE
  5
72
  8
2D_DRAWINGS
 10
138.0
 20
-85.99999999420312
 30
0.0
 11
360.9299999999998
 21
-86.00000000000327
 31
0.0
  0
ARC
  5
73
  8
2D_DRAWINGS
 10
360.9299999999997
 20
-79.00000000000311
 30
0.0
 40
7.000000000000156
 50
270.0000000000014
 51
359.9999999999987
  0
LINE
  5
74
  8
2D_DRAWINGS
 10
367.9299999999998
 20
-79.00000000000327
 30
0.0
 11
367.9299999999998
 21
-9.150000000003274
 31
0.0
  0
ARC
  5
75
  8
2D_DRAWINGS
 10
360.9299999999997
 20
-9.150000000003502
 30
0.0
 40
7.000000000000171
 50
0.0000000000018611
 51
89.99999999999861
  0
LINE
  5
76
  8
2D_DRAWINGS
 10
360.9299999999998
 20
-2.150000000003274
 30
0.0
 11
138.0
 21
-2.149999994203398
 31
0.0
  0
CIRCLE
  5
77
  8
2D_DRAWINGS
 10
319.465
 20
-70.99999999710332
 30
0.0
 40
1.599999999999966
  0
CIRCLE
  5
78
  8
2D_DRAWINGS
 10
319.465
 20
-50.9999999971032
 30
0.0
 40
1.599999999999966
  0
CIRCLE
  5
79
  8
2D_DRAWINGS
 10
319.4649999999999
 20
-30.99999999710321
 30
0.0
 40
1.600000000000023
  0
CIRCLE
  5
7A
  8
2D_DRAWINGS
 10
319.4649999999999
 20
-10.99999999710311
 30
0.0
 40
1.600000000000023
  0
CIRCLE
  5
7B
  8
2D_DRAWINGS
 10
179.4649999999999
 20
-70.99999999710323
 30
0.0
 40
1.599999999999994
  0
CIRCLE
  5
7C
  8
2D_DRAWINGS
 10
179.4649999999999
 20
-50.99999999710323
 30
0.0
 40
1.599999999999994
  0
CIRCLE
  5
7D
  8
2D_DRAWINGS
 10
179.4649999999999
 20
-30.9999999971032
 30
0.0
 40
1.599999999999994
  0
CIRCLE
  5
7E
  8
2D_DRAWINGS
 10
179.465
 20
-10.9999999971032
 30
0.0
 40
1.599999999999966
  0
CIRCLE
  5
7F
  8
2D_DRAWINGS
 10
299.4649999999999
 20
-10.99999999710316
 30
0.0
 40
1.600000000000023
  0
CIRCLE
  5
80
  8
2D_DRAWINGS
 10
279.465
 20
-10.9999999971032
 30
0.0
 40
1.599999999999966
  0
CIRCLE
  5
81
  8
2D_DRAWINGS
 10
259.4649999999998
 20
-10.9999999971031
 30
0.0
 40
1.600000000000136
  0
CIRCLE
  5
82
  8
2D_DRAWINGS
 10
239.4649999999999
 20
-10.99999999710316
 30
0.0
 40
1.600000000000023
  0
CIRCLE
  5
83
  8
2D_DRAWINGS
 10
219.4649999999999
 20
-10.99999999710318
 30
0.0
 40
1.599999999999994
  0
CIRCLE
  5
84
  8
2D_DRAWINGS
 10
199.4649999999999
 20
-10.99999999710324
 30
0.0
 40
1.599999999999994
  0
CIRCLE
  5
85
  8
2D_DRAWINGS
 10
299.4649999999999
 20
-30.9999999971032
 30
0.0
 40
1.600000000000023
  0
CIRCLE
  5
86
  8
2D_DRAWINGS
 10
279.465
 20
-30.9999999971032
 30
0.0
 40
1.599999999999966
  0
CIRCLE
  5
87
  8
2D_DRAWINGS
 10
259.4649999999999
 20
-30.99999999710322
 30
0.0
 40
1.600000000000023
  0
CIRCLE
  5
88
  8
2D_DRAWINGS
 10
239.4649999999999
 20
-30.99999999710322
 30
0.0
 40
1.599999999999994
  0
CIRCLE
  5
89
  8
2D_DRAWINGS
 10
219.4649999999999
 20
-30.9999999971032
 30
0.0
 40
1.599999999999994
  0
CIRCLE
  5
8A
  8
2D_DRAWINGS
 10
199.4649999999999
 20
-30.99999999710317
 30
0.0
 40
1.600000000000051
  0
CIRCLE
  5
8B
  8
2D_DRAWINGS
 10
299.4649999999999
 20
-50.99999999710326
 30
0.0
 40
1.600000000000023
  0
CIRCLE
  5
8C
  8
2D_DRAWINGS
 10
279.465
 20
-50.99999999710315
 30
0.0
 40
1.599999999999909
  0
CIRCLE
  5
8D
  8
2D_DRAWINGS
 10
259.4649999999999
 20
-50.99999999710308
 30
0.0
 40
1.60000000000008
  0
CIRCLE
  5
8E
  8
2D_DRAWINGS
 10
239.465
 20
-50.99999999710326
 30
0.0
 40
1.599999999999966
  0
CIRCLE
  5
8F
  8
2D_DRAWINGS
 10
219.4649999999999
 20
-50.9999999971032
 30
0.0
 40
1.599999999999994
  0
CIRCLE
  5
90
  8
2D_DRAWINGS
 10
199.4649999999999
 20
-50.99999999710321
 30
0.0
 40
1.600000000000023
  0
CIRCLE
  5
91
  8
2D_DRAWINGS
 10
299.4649999999999
 20
-70.9999999971032
 30
0.0
 40
1.600000000000023
  0
CIRCLE
  5
92
  8
2D_DRAWINGS
 10
279.4649999999999
 20
-70.99999999710319
 30
0.0
 40
1.600000000000023
  0
CIRCLE
  5
93
  8
2D_DRAWINGS
 10
259.4649999999999
 20
-70.9999999971031
 30
0.0
 40
1.600000000000023
  0
CIRCLE
  5
94
  8
2D_DRAWINGS
 10
239.4649999999999
 20
-70.9999999971032
 30
0.0
 40
1.599999999999994
  0
CIRCLE
  5
95
  8
2D_DRAWINGS
 10
219.4649999999999
 20
-70.99999999710317
 30
0.0
 40
1.599999999999994
  0
CIRCLE
  5
96
  8
2D_DRAWINGS
 10
199.4649999999999
 20
-70.9999999971032
 30
0.0
 40
1.600000000000023
  0
CIRCLE
  5
97
  8
2D_DRAWINGS
 10
360.9299999999998
 20
-79.00000000000325
 30
0.0
 40
1.829999999999984
  0
CIRCLE
  5
98
  8
2D_DRAWINGS
 10
360.9299999999998
 20
-9.150000000003331
 30
0.0
 40
1.829999999999984
  0
CIRCLE
  5
99
  8
2D_DRAWINGS
 10
138.0
 20
-9.149999994203426
 30
0.0
 40
1.830000000000013
  0
CIRCLE
  5
9A
  8
2D_DRAWINGS
 10
138.0
 20
-78.99999999420314
 30
0.0
 40
1.830000000000013
  0
LINE
  5
9B
  8
2D_DRAWINGS
 10
270.4778036113609
 20
67.0
 30
0.0
 11
184.0021963886392
 21
67.0
 31
0.0
  0
ARC
  5
9C
  8
2D_DRAWINGS
 10
184.0021963886396
 20
59.99999999999991
 30
0.0
 40
7.000000000000092
 50
90.00000000000395
 51
114.5366949878644
  0
LINE
  5
9D
  8
2D_DRAWINGS
 10
181.0952648032548
 20
66.36786846267198
 30
0.0
 11
135.0930684153429
 21
45.3678684688041
 31
0.0
  0
ARC
  5
9E
  8
2D_DRAWINGS
 10
138.0
 20
39.00000000580008
 30
0.0
 40
6.999999999999901
 50
114.5366949813181
 51
180.0000000000006
  0
LINE
  5
9F
  8
2D_DRAWINGS
 10
131.0000000000001
 20
39.0000000058
 30
0.0
 11
131.0
 21
7.000000000000547
 31
0.0
  0
ARC
  5
A0
  8
2D_DRAWINGS
 10
138.0
 20
6.999999999999993
 30
0.0
 40
7.0
 50
179.9999999999955
 51
269.9999999999963
  0
LINE
  5
A1
  8
2D_DRAWINGS
 10
137.9999999999995
 20
0.0
 30
0.0
 11
316.4800000000016
 21
0.0000000000007532
 31
0.0
  0
ARC
  5
A2
  8
2D_DRAWINGS
 10
316.48
 20
7.000000000000625
 30
0.0
 40
6.999999999999872
 50
270.0000000000126
 51
0.0000000000072698
  0
LINE
  5
A3
  8
2D_DRAWINGS
 10
323.4799999999999
 20
7.000000000001513
 30
0.0
 11
323.4799999999999
 21
39.0
 31
0.0
  0
ARC
  5
A4
  8
2D_DRAWINGS
 10
316.4799999999998
 20
38.99999999999999
 30
0.0
 40
7.000000000000057
 50
0.0000000000000582
 51
65.46330503839526
  0
LINE
  5
A5
  8
2D_DRAWINGS
 10
319.3869315824661
 20
45.36786846400433
 30
0.0
 11
273.3847351967452
 21
66.36786846267196
 31
0.0
  0
ARC
  5
A6
  8
2D_DRAWINGS
 10
270.47780361136
 20
59.99999999999805
 30
0.0
 40
7.000000000001953
 50
65.46330501213855
 51
89.99999999999255
  0
CIRCLE
  5
A7
  8
2D_DRAWINGS
 10
316.4799999999999
 20
13.60000000000004
 30
0.0
 40
1.830000000000041
  0
CIRCLE
  5
A8
  8
2D_DRAWINGS
 10
316.4799999999999
 20
39.00000000000005
 30
0.0
 40
1.830000000000041
  0
CIRCLE
  5
A9
  8
2D_DRAWINGS
 10
138.0000000000001
 20
39.0000000058
 30
0.0
 40
1.830000000000013
  0
CIRCLE
  5
AA
  8
2D_DRAWINGS
 10
138.0000000000001
 20
13.59999999420012
 30
0.0
 40
1.830000000000013
  0
CIRCLE
  5
AB
  8
2D_DRAWINGS
 10
254.5449989318848
 20
56.23399954223638
 30
0.0
 40
1.600000000000023
  0
CIRCLE
  5
AC
  8
2D_DRAWINGS
 10
254.5449989318847
 20
7.973999542236404
 30
0.0
 40
1.599999999999994
  0
CIRCLE
  5
AD
  8
2D_DRAWINGS
 10
188.5049989318847
 20
11.14899954223645
 30
0.0
 40
1.600000000000023
  0
CIRCLE
  5
AE
  8
2D_DRAWINGS
 10
188.5049989318848
 20
53.05899954223652
 30
0.0
 40
1.599999999999994
  0
ENDSEC
  0
EOF
